<svg xmlns="http://www.w3.org/2000/svg" viewBox="0 0 32 32" width="32" height="32">
  <rect width="32" height="32" fill="#000000"/>
  <path d="M16 2C8 2 4 8 4 16C4 20 6 24 8 26C10 28 12 30 16 30C20 30 22 28 24 26C26 24 28 20 28 16C28 8 24 2 16 2ZM16 4C22 4 26 8 26 16C26 18 25 20 24 22C22 24 20 26 16 26C12 26 10 24 8 22C7 20 6 18 6 16C6 8 10 4 16 4ZM16 6C12 6 8 10 8 16C8 18 9 20 10 22C11 24 13 26 16 26C19 26 21 24 22 22C23 20 24 18 24 16C24 10 20 6 16 6ZM16 8C18 8 20 10 20 12C20 14 18 16 16 16C14 16 12 14 12 12C12 10 14 8 16 8ZM16 10C15 10 14 11 14 12C14 13 15 14 16 14C17 14 18 13 18 12C18 11 17 10 16 10Z" fill="#FF0000"/>
  <path d="M12 12C12 10 14 8 16 8C18 8 20 10 20 12C20 14 18 16 16 16C14 16 12 14 12 12Z" fill="#000000"/>
  <path d="M18 12C18 10 20 8 22 8C24 8 26 10 26 12C26 14 24 16 22 16C20 16 18 14 18 12Z" fill="#000000"/>
</svg>

